<svg width="17" height="17" viewBox="0 0 17 17" fill="none" xmlns="http://www.w3.org/2000/svg">
<g clip-path="url(#clip0_476_4402)">
<path d="M6.53581 0.689819V2.02315H10.5358V0.689819H11.8691V2.02315H14.5358C14.904 2.02315 15.2025 2.32163 15.2025 2.68982V13.3565C15.2025 13.7247 14.904 14.0232 14.5358 14.0232H2.53581C2.16762 14.0232 1.86914 13.7247 1.86914 13.3565V2.68982C1.86914 2.32163 2.16762 2.02315 2.53581 2.02315H5.20247V0.689819H6.53581ZM13.8691 7.35649H3.20247V12.6898H13.8691V7.35649ZM5.20247 3.35649H3.20247V6.02315H13.8691V3.35649H11.8691V4.68982H10.5358V3.35649H6.53581V4.68982H5.20247V3.35649Z" fill="#2E6CF4"/>
</g>
<defs>
<clipPath id="clip0_476_4402">
<rect width="16" height="16" fill="white" transform="translate(0.535156 0.0231934)"/>
</clipPath>
</defs>
</svg>
