<svg width="17" height="17" viewBox="0 0 17 17" fill="none" xmlns="http://www.w3.org/2000/svg">
<g clip-path="url(#clip0_476_4405)">
<path d="M8.03711 14.6512L11.3369 11.3513C13.1594 9.52891 13.1594 6.57413 11.3369 4.75168C9.51451 2.92923 6.55972 2.92923 4.73728 4.75168C2.91483 6.57413 2.91483 9.52891 4.73728 11.3513L8.03711 14.6512ZM8.03711 16.5368L3.79447 12.2942C1.45132 9.95098 1.45132 6.15202 3.79447 3.80887C6.13762 1.46573 9.93658 1.46573 12.2798 3.80887C14.6229 6.15202 14.6229 9.95098 12.2798 12.2942L8.03711 16.5368ZM8.03711 9.38485C8.77351 9.38485 9.37044 8.78791 9.37044 8.05151C9.37044 7.31513 8.77351 6.71818 8.03711 6.71818C7.30071 6.71818 6.70378 7.31513 6.70378 8.05151C6.70378 8.78791 7.30071 9.38485 8.03711 9.38485ZM8.03711 10.7182C6.56435 10.7182 5.37044 9.52425 5.37044 8.05151C5.37044 6.57875 6.56435 5.38485 8.03711 5.38485C9.50984 5.38485 10.7038 6.57875 10.7038 8.05151C10.7038 9.52425 9.50984 10.7182 8.03711 10.7182Z" fill="#2E6CF4"/>
</g>
<defs>
<clipPath id="clip0_476_4405">
<rect width="16" height="16" fill="white" transform="translate(0.0351562 0.71814)"/>
</clipPath>
</defs>
</svg>
