<svg width="40" height="40" viewBox="0 0 40 40" fill="none" xmlns="http://www.w3.org/2000/svg">
<path d="M20.0002 36.6666C10.7954 36.6666 3.3335 29.2046 3.3335 19.9999C3.3335 10.7952 10.7954 3.33325 20.0002 3.33325C29.2048 3.33325 36.6668 10.7952 36.6668 19.9999C36.6668 29.2046 29.2048 36.6666 20.0002 36.6666ZM20.0002 33.3333C27.364 33.3333 33.3335 27.3638 33.3335 19.9999C33.3335 12.6361 27.364 6.66659 20.0002 6.66659C12.6364 6.66659 6.66683 12.6361 6.66683 19.9999C6.66683 27.3638 12.6364 33.3333 20.0002 33.3333ZM21.6668 19.9999H28.3335V23.3333H18.3335V11.6666H21.6668V19.9999Z" fill="#2E6CF4"/>
</svg>
