<svg width="30" height="37" viewBox="0 0 30 37" fill="none" xmlns="http://www.w3.org/2000/svg">
<path d="M15 31.8324L23.2495 23.5828C27.8057 19.0268 27.8057 11.6398 23.2495 7.08367C18.6935 2.52755 11.3065 2.52755 6.75042 7.08367C2.1943 11.6398 2.1943 19.0268 6.75042 23.5828L15 31.8324ZM15 36.5464L4.3934 25.9399C-1.46447 20.0819 -1.46447 10.5845 4.3934 4.72665C10.2513 -1.13121 19.7487 -1.13121 25.6067 4.72665C31.4645 10.5845 31.4645 20.0819 25.6067 25.9399L15 36.5464ZM15 18.6666C16.841 18.6666 18.3333 17.1743 18.3333 15.3333C18.3333 13.4923 16.841 11.9999 15 11.9999C13.159 11.9999 11.6667 13.4923 11.6667 15.3333C11.6667 17.1743 13.159 18.6666 15 18.6666ZM15 21.9999C11.3181 21.9999 8.33333 19.0151 8.33333 15.3333C8.33333 11.6514 11.3181 8.66658 15 8.66658C18.6818 8.66658 21.6667 11.6514 21.6667 15.3333C21.6667 19.0151 18.6818 21.9999 15 21.9999Z" fill="#2E6CF4"/>
</svg>
