<svg width="14" height="15" viewBox="0 0 14 15" fill="none" xmlns="http://www.w3.org/2000/svg">
<path d="M4.89323 0.691956V2.02529H8.89323V0.691956H10.2266V2.02529H12.8932C13.2614 2.02529 13.5599 2.32377 13.5599 2.69196V13.3586C13.5599 13.7268 13.2614 14.0253 12.8932 14.0253H0.893229C0.525043 14.0253 0.226562 13.7268 0.226562 13.3586V2.69196C0.226562 2.32377 0.525043 2.02529 0.893229 2.02529H3.5599V0.691956H4.89323ZM12.2266 7.35862H1.5599V12.692H12.2266V7.35862ZM3.5599 3.35862H1.5599V6.02529H12.2266V3.35862H10.2266V4.69196H8.89323V3.35862H4.89323V4.69196H3.5599V3.35862Z" fill="#A0A0A0"/>
</svg>
